<svg width="26" height="26" viewBox="0 0 26 26" fill="none" xmlns="http://www.w3.org/2000/svg">
<path d="M12.7868 0C12.3686 0 11.9504 0.0197803 11.5322 0.0593421C11.1168 0.10173 10.7014 0.163897 10.2916 0.245846C9.88188 0.324969 9.47496 0.426698 9.07369 0.548208C8.67525 0.669718 8.27964 0.811009 7.8925 0.97208C7.50536 1.13315 7.12953 1.31118 6.75935 1.50899C6.38917 1.70679 6.03029 1.92155 5.68271 2.15327C5.33514 2.38499 4.99887 2.63649 4.6739 2.90211C4.35175 3.16774 4.04092 3.44749 3.7442 3.7442C3.45032 4.04092 3.16774 4.34893 2.90211 4.6739C2.63649 4.99604 2.38781 5.33231 2.1561 5.67989C1.92155 6.03029 1.70679 6.38917 1.50899 6.75652C1.314 7.12671 1.13315 7.50536 0.974906 7.8925C0.813834 8.27964 0.672544 8.67243 0.551034 9.07369C0.429524 9.47213 0.327794 9.87905 0.245846 10.2888C0.163897 10.7014 0.104555 11.1139 0.0621679 11.5322C0.0197805 11.9475 0 12.3658 0 12.784C0 13.2022 0.0197805 13.6204 0.0621679 14.0386C0.104555 14.454 0.163897 14.8666 0.245846 15.2792C0.327794 15.6889 0.429524 16.0958 0.551034 16.4943C0.672544 16.8955 0.813834 17.2912 0.974906 17.6783C1.13315 18.0626 1.314 18.4413 1.50899 18.8115C1.70679 19.1816 1.92155 19.5405 2.1561 19.8881C2.38781 20.2357 2.63649 20.5719 2.90211 20.8941C3.16774 21.219 3.45032 21.5299 3.7442 21.8238C4.04092 22.1205 4.35175 22.4031 4.6739 22.6687C4.99887 22.9343 5.33514 23.183 5.68271 23.4147C6.03029 23.6464 6.38917 23.8612 6.75935 24.059C7.12953 24.2568 7.50536 24.4348 7.8925 24.5959C8.27964 24.757 8.67525 24.8983 9.07369 25.0198C9.47496 25.1413 9.88188 25.243 10.2916 25.325C10.7014 25.4041 11.1168 25.4662 11.5322 25.5086C11.9504 25.5482 12.3686 25.5708 12.7868 25.5708C13.205 25.5708 13.6233 25.5482 14.0386 25.5086C14.4569 25.4662 14.8694 25.4041 15.2792 25.325C15.6918 25.243 16.0958 25.1413 16.4971 25.0198C16.8984 24.8983 17.2912 24.757 17.6783 24.5959C18.0654 24.4348 18.4441 24.2568 18.8143 24.059C19.1816 23.8612 19.5405 23.6464 19.8881 23.4147C20.2385 23.183 20.5719 22.9343 20.8969 22.6687C21.2219 22.4031 21.5299 22.1205 21.8266 21.8238C22.1233 21.5299 22.4031 21.219 22.6687 20.8941C22.9343 20.5719 23.183 20.2357 23.4175 19.8881C23.6492 19.5405 23.864 19.1816 24.0618 18.8115C24.2596 18.4413 24.4376 18.0626 24.5987 17.6783C24.757 17.2912 24.8983 16.8955 25.0198 16.4943C25.1413 16.0958 25.243 15.6889 25.325 15.2792C25.4069 14.8666 25.4691 14.454 25.5086 14.0386C25.551 13.6204 25.5708 13.2022 25.5708 12.784C25.5708 12.3658 25.551 11.9475 25.5086 11.5322C25.4691 11.1139 25.4069 10.7014 25.325 10.2888C25.243 9.87905 25.1413 9.47213 25.0198 9.07369C24.8983 8.67243 24.757 8.27681 24.5959 7.8925C24.4376 7.50536 24.2568 7.12671 24.0618 6.75652C23.864 6.38634 23.6492 6.03029 23.4147 5.67989C23.183 5.33231 22.9343 4.99604 22.6687 4.6739C22.4031 4.34893 22.1205 4.04092 21.8266 3.7442C21.5299 3.44749 21.219 3.16774 20.8969 2.90211C20.5719 2.63649 20.2357 2.38499 19.8881 2.15327C19.5405 1.92155 19.1816 1.70679 18.8115 1.50899C18.4441 1.31118 18.0654 1.13315 17.6783 0.97208C17.2912 0.811009 16.8984 0.669718 16.4971 0.548208C16.0958 0.426698 15.6918 0.324969 15.2792 0.245846C14.8694 0.163897 14.4569 0.10173 14.0386 0.0593421C13.6233 0.0197803 13.205 0 12.7868 0ZM12.7868 4.79258C13.0892 4.79258 13.3887 4.82932 13.6854 4.89714C13.9821 4.96778 14.2647 5.06951 14.536 5.20515C14.8101 5.34079 15.0616 5.50469 15.2961 5.69967C15.5279 5.89465 15.737 6.11224 15.9206 6.35526C16.1015 6.59828 16.2541 6.85825 16.3784 7.13518C16.4999 7.41494 16.5875 7.70317 16.6441 8.00271C16.7006 8.29942 16.7203 8.60178 16.7034 8.90414C16.6893 9.20933 16.6412 9.50604 16.5564 9.7971C16.4717 10.091 16.3558 10.3679 16.2089 10.6335C16.0591 10.8992 15.8811 11.1422 15.6776 11.3654C15.4713 11.5915 15.2424 11.7865 14.9909 11.9588C14.7395 12.1284 14.4738 12.2697 14.1884 12.3771C13.9058 12.4873 13.612 12.5607 13.3124 12.6003C13.0101 12.6427 12.7077 12.6483 12.4053 12.6173C12.103 12.589 11.8091 12.524 11.5208 12.4251C11.2354 12.329 10.9613 12.199 10.7042 12.038C7.41211 9.95252 8.83915 4.83214 12.7868 4.79258ZM17.3844 20.7754H8.18639C7.99706 20.7754 7.80773 20.7556 7.62122 20.7189C7.43472 20.6821 7.25387 20.6256 7.07867 20.5522C6.90347 20.4787 6.73674 20.3911 6.5785 20.2837C6.42025 20.1791 6.27331 20.0576 6.1405 19.9248C6.00486 19.7892 5.88335 19.6422 5.77879 19.484C5.67424 19.3257 5.58381 19.159 5.51034 18.9838C5.43969 18.8086 5.38318 18.6249 5.34644 18.4384C5.30971 18.2519 5.28993 18.0654 5.28993 17.8733C5.28993 15.4176 7.10127 13.2955 9.6982 12.3403C9.91296 12.5212 10.139 12.6823 10.382 12.8235C10.6251 12.9648 10.8766 13.0835 11.1422 13.1796C11.405 13.2757 11.6734 13.3492 11.9504 13.3972C12.2273 13.4481 12.5042 13.4707 12.7868 13.4707C13.0666 13.4707 13.3435 13.4481 13.6204 13.3972C13.8974 13.3492 14.1658 13.2757 14.4314 13.1796C14.6942 13.0835 14.9457 12.9648 15.1888 12.8235C15.4318 12.6823 15.6607 12.5212 15.8754 12.3403C18.4724 13.2955 20.2809 15.4176 20.2809 17.8733C20.2809 18.0654 20.2639 18.2519 20.2244 18.4384C20.1876 18.6249 20.1339 18.8086 20.0605 18.9838C19.987 19.159 19.8994 19.3257 19.792 19.484C19.6875 19.6422 19.5659 19.7892 19.4331 19.9248C19.2975 20.0576 19.1534 20.1791 18.9951 20.2837C18.8369 20.3911 18.6702 20.4787 18.4921 20.5522C18.3169 20.6256 18.1361 20.6821 17.9496 20.7189C17.7631 20.7556 17.5737 20.7754 17.3844 20.7754Z" fill="#0FA7E6"/>
</svg>
