<svg width="17" height="17" viewBox="0 0 17 17" fill="none" xmlns="http://www.w3.org/2000/svg">
<path d="M12.1735 11.3984C13.2024 10.1605 13.7698 8.60975 13.7698 6.9648C13.7698 5.13154 13.0694 3.40905 11.8043 2.11303C10.5365 0.817011 8.85065 0.102539 7.05891 0.102539C5.26716 0.102539 3.58401 0.817011 2.31621 2.11303C-0.298111 4.78815 -0.298111 9.14145 2.31621 11.8166C3.58401 13.1126 5.26716 13.8271 7.05891 13.8271C8.66605 13.8271 10.1863 13.2483 11.3971 12.1932L15.8982 16.8013C16.0068 16.9093 16.1479 16.9646 16.2891 16.9646C16.4276 16.9646 16.5687 16.9093 16.6773 16.8013C16.8918 16.5797 16.8918 16.2252 16.6773 16.0065L12.1735 11.3984ZM3.09263 11.0218C0.90453 8.78421 0.90453 5.14538 3.09263 2.90781C5.28074 0.673009 8.83708 0.67024 11.0252 2.90781C12.0867 3.9906 12.6703 5.43339 12.6703 6.9648C12.6703 8.4962 12.0867 9.939 11.0252 11.0218C8.83708 13.2594 5.28074 13.2566 3.09263 11.0218Z" fill="black"/>
</svg>
