<svg width="28" height="23" viewBox="0 0 28 23" fill="none" xmlns="http://www.w3.org/2000/svg">
<path d="M26.4966 3.68634H9.92193C9.822 3.29374 9.66258 2.9297 9.43892 2.59183C9.21764 2.25158 8.94877 1.95892 8.62994 1.71147C8.3111 1.46401 7.95896 1.27366 7.57588 1.1428C7.19518 1.01193 6.80021 0.945312 6.39572 0.945312C5.99361 0.945312 5.59863 1.01193 5.21794 1.1428C4.83486 1.27366 4.48271 1.46401 4.16388 1.71147C3.84505 1.95892 3.5738 2.25158 3.35252 2.59183C3.13124 2.9297 2.97182 3.29374 2.87189 3.68634H0.913674C0.794706 3.68634 0.678118 3.71013 0.566288 3.75534C0.452078 3.80054 0.354525 3.86717 0.268868 3.95282C0.183211 4.03848 0.116589 4.13841 0.0713808 4.25024C0.0237936 4.36207 0 4.47866 0 4.60001C0 4.72136 0.0237936 4.83795 0.0713808 4.94978C0.116589 5.06161 0.183211 5.15916 0.268868 5.24482C0.354525 5.33047 0.452078 5.39709 0.566288 5.4423C0.678118 5.48989 0.794706 5.51368 0.913674 5.51368H2.87189C2.97182 5.9039 3.13124 6.27032 3.35252 6.60819C3.5738 6.94606 3.84505 7.23872 4.16388 7.48617C4.48271 7.73601 4.83486 7.92398 5.21794 8.05484C5.59863 8.18808 5.99361 8.25233 6.39572 8.25233C6.80021 8.25233 7.19518 8.18808 7.57588 8.05484C7.95896 7.92398 8.3111 7.73601 8.62994 7.48617C8.94877 7.23872 9.21764 6.94606 9.43892 6.60819C9.66258 6.27032 9.822 5.9039 9.92193 5.51368H26.4966C26.6179 5.51368 26.7345 5.48989 26.8463 5.4423C26.9581 5.39709 27.0581 5.33047 27.1437 5.24482C27.2294 5.15916 27.296 5.06161 27.3412 4.94978C27.3888 4.83795 27.4102 4.72136 27.4102 4.60001C27.4102 4.47866 27.3888 4.36207 27.3412 4.25024C27.296 4.13841 27.2294 4.03848 27.1437 3.95282C27.0581 3.86717 26.9581 3.80054 26.8463 3.75534C26.7345 3.71013 26.6179 3.68634 26.4966 3.68634ZM6.39572 6.42736C6.1554 6.42736 5.92223 6.37977 5.69857 6.28698C5.47253 6.19418 5.27504 6.06332 5.10373 5.892C4.93241 5.72069 4.80155 5.5232 4.70875 5.29954C4.61596 5.0735 4.56837 4.8427 4.56837 4.60001C4.56837 4.35731 4.61596 4.12414 4.70875 3.90048C4.80155 3.67682 4.93241 3.47933 5.10373 3.30802C5.27504 3.1367 5.47253 3.00346 5.69857 2.91066C5.92223 2.81787 6.1554 2.77266 6.39572 2.77266C6.63841 2.77266 6.87159 2.81787 7.09525 2.91066C7.31891 3.00346 7.5164 3.1367 7.69009 3.30802C7.86141 3.47933 7.99227 3.67682 8.08506 3.90048C8.17786 4.12414 8.22307 4.35731 8.22307 4.60001C8.22307 4.8427 8.17786 5.0735 8.08506 5.29954C7.99227 5.5232 7.86141 5.72069 7.69009 5.892C7.5164 6.06332 7.31891 6.19418 7.09525 6.28698C6.87159 6.37977 6.63841 6.42736 6.39572 6.42736Z" fill="black"/>
<path d="M26.4966 18.3028H14.4903C14.3904 17.9102 14.231 17.5462 14.0073 17.2083C13.786 16.8704 13.5171 16.5754 13.1983 16.3279C12.8795 16.0805 12.5273 15.8901 12.1443 15.7593C11.7636 15.6284 11.3686 15.5618 10.9641 15.5618C10.562 15.5618 10.167 15.6284 9.78631 15.7593C9.40323 15.8901 9.05108 16.0805 8.73225 16.3279C8.41342 16.5754 8.14217 16.8704 7.92089 17.2083C7.69961 17.5462 7.54019 17.9102 7.44026 18.3028H0.913674C0.794706 18.3028 0.678118 18.3266 0.566288 18.3718C0.452078 18.4194 0.354525 18.4836 0.268868 18.5693C0.183211 18.6549 0.116589 18.7549 0.0713808 18.8667C0.0237936 18.9785 0 19.0951 0 19.2165C0 19.3378 0.0237936 19.4544 0.0713808 19.5662C0.116589 19.6781 0.183211 19.7756 0.268868 19.8613C0.354525 19.9469 0.452078 20.0135 0.566288 20.0611C0.678118 20.1063 0.794706 20.1301 0.913674 20.1301H7.44026C7.54019 20.5204 7.69961 20.8868 7.92089 21.2246C8.14217 21.5625 8.41342 21.8552 8.73225 22.105C9.05108 22.3525 9.40323 22.5428 9.78631 22.6737C10.167 22.8045 10.562 22.8688 10.9641 22.8688C11.3686 22.8688 11.7636 22.8045 12.1443 22.6737C12.5273 22.5428 12.8795 22.3525 13.1983 22.105C13.5171 21.8552 13.786 21.5625 14.0073 21.2246C14.231 20.8868 14.3904 20.5204 14.4903 20.1301H26.4966C26.6179 20.1301 26.7345 20.1063 26.8463 20.0611C26.9581 20.0135 27.0581 19.9469 27.1437 19.8613C27.2294 19.7756 27.296 19.6781 27.3412 19.5662C27.3888 19.4544 27.4102 19.3378 27.4102 19.2165C27.4102 19.0951 27.3888 18.9785 27.3412 18.8667C27.296 18.7549 27.2294 18.6549 27.1437 18.5693C27.0581 18.4836 26.9581 18.4194 26.8463 18.3718C26.7345 18.3266 26.6179 18.3028 26.4966 18.3028ZM10.9641 21.0438C10.7238 21.0438 10.4906 20.9962 10.2669 20.9034C10.0409 20.8106 9.84341 20.6798 9.6721 20.5085C9.50078 20.3371 9.36992 20.1397 9.27712 19.916C9.18433 19.6923 9.13674 19.4592 9.13674 19.2165C9.13674 18.9738 9.18433 18.7406 9.27712 18.5169C9.36992 18.2933 9.50078 18.0958 9.6721 17.9245C9.84341 17.7532 10.0409 17.6199 10.2669 17.5271C10.4906 17.4343 10.7238 17.3891 10.9641 17.3891C11.2068 17.3891 11.44 17.4343 11.6636 17.5271C11.8873 17.6199 12.0848 17.7532 12.2585 17.9245C12.4298 18.0958 12.5606 18.2933 12.6534 18.5169C12.7462 18.7406 12.7914 18.9738 12.7914 19.2165C12.7914 19.4592 12.7462 19.6923 12.6534 19.916C12.5606 20.1397 12.4298 20.3371 12.2585 20.5085C12.0848 20.6798 11.8873 20.8106 11.6636 20.9034C11.44 20.9962 11.2068 21.0438 10.9641 21.0438Z" fill="black"/>
<path d="M26.4966 10.9935H25.4544C25.3545 10.6033 25.195 10.2369 24.9714 9.89902C24.7501 9.56115 24.4812 9.26849 24.1624 9.02104C23.8436 8.7712 23.4914 8.58323 23.1083 8.45237C22.7276 8.31913 22.3327 8.25488 21.9282 8.25488C21.5261 8.25488 21.1311 8.31913 20.7504 8.45237C20.3673 8.58323 20.0152 8.7712 19.6963 9.02104C19.3775 9.26849 19.1063 9.56115 18.885 9.89902C18.6637 10.2369 18.5043 10.6033 18.4043 10.9935H0.913674C0.794706 10.9935 0.678118 11.0173 0.566288 11.0649C0.452078 11.1101 0.354525 11.1767 0.268868 11.2624C0.183211 11.3481 0.116589 11.4456 0.0713808 11.5574C0.0237936 11.6693 0 11.7859 0 11.9072C0 12.0285 0.0237936 12.1451 0.0713808 12.257C0.116589 12.3688 0.183211 12.4687 0.268868 12.5544C0.354525 12.64 0.452078 12.7067 0.566288 12.7519C0.678118 12.7995 0.794706 12.8209 0.913674 12.8209H18.4043C18.5043 13.2135 18.6637 13.5775 18.885 13.9154C19.1063 14.2556 19.3775 14.5483 19.6963 14.7957C20.0152 15.0432 20.3673 15.2335 20.7504 15.3644C21.1311 15.4953 21.5261 15.5619 21.9282 15.5619C22.3327 15.5619 22.7276 15.4953 23.1083 15.3644C23.4914 15.2335 23.8436 15.0432 24.1624 14.7957C24.4812 14.5483 24.7501 14.2556 24.9714 13.9154C25.195 13.5775 25.3545 13.2135 25.4544 12.8209H26.4966C26.6179 12.8209 26.7345 12.7995 26.8463 12.7519C26.9581 12.7067 27.0581 12.64 27.1437 12.5544C27.2294 12.4687 27.296 12.3688 27.3412 12.257C27.3888 12.1451 27.4102 12.0285 27.4102 11.9072C27.4102 11.7859 27.3888 11.6693 27.3412 11.5574C27.296 11.4456 27.2294 11.3481 27.1437 11.2624C27.0581 11.1767 26.9581 11.1101 26.8463 11.0649C26.7345 11.0173 26.6179 10.9935 26.4966 10.9935ZM21.9282 13.7345C21.6879 13.7345 21.4547 13.6893 21.231 13.5965C21.005 13.5038 20.8075 13.3705 20.6362 13.1992C20.4649 13.0279 20.334 12.8304 20.2412 12.6067C20.1484 12.3831 20.1008 12.1499 20.1008 11.9072C20.1008 11.6645 20.1484 11.4337 20.2412 11.2077C20.334 10.984 20.4649 10.7865 20.6362 10.6152C20.8075 10.4439 21.005 10.313 21.231 10.2202C21.4547 10.1274 21.6879 10.0799 21.9282 10.0799C22.1709 10.0799 22.4041 10.1274 22.6277 10.2202C22.8514 10.313 23.0489 10.4439 23.2226 10.6152C23.3939 10.7865 23.5247 10.984 23.6175 11.2077C23.7103 11.4337 23.7555 11.6645 23.7555 11.9072C23.7555 12.1499 23.7103 12.3831 23.6175 12.6067C23.5247 12.8304 23.3939 13.0279 23.2226 13.1992C23.0489 13.3705 22.8514 13.5038 22.6277 13.5965C22.4041 13.6893 22.1709 13.7345 21.9282 13.7345Z" fill="black"/>
</svg>
